<svg version="1" xmlns="http://www.w3.org/2000/svg" width="5166.667" height="5166.667" viewBox="0 0 3875.000000 3875.000000"><path d="M2730.7.6c-.1.1-6.9.5-15.2.9-8.2.3-16.3.8-18 1-1.6.2-6.6.6-11 .9-4.4.4-9.3.8-11 1-1.6.2-5.9.7-9.5 1.1-3.6.4-7.2.9-8.1 1-.9.2-4 .6-7 1-3 .3-6.5.8-7.9 1-1.4.3-3.8.7-5.5.9-1.6.3-4.5.8-6.2 1.1-1.8.3-4.8.7-6.5 1-7.6 1.3-9.5 1.7-21.6 4.1-7 1.4-13.4 2.7-14.2 2.9-.8.2-7.6 1.7-15 3.5-7.4 1.7-14.2 3.3-15 3.5-4.3.9-35.8 9.8-44.5 12.5-73.6 22.6-158.2 58.3-220.5 93-5.2 2.9-11.9 6.6-14.8 8.2-6 3.2-52.1 30.8-53.7 32.1-.5.4-8.5 5.7-17.7 11.6-13.9 9.1-46.5 31.5-51.8 35.7-.8.7-9.1 6.9-18.5 14-21.2 15.9-56.8 44.5-67.1 53.9-.6.5-4.2 3.7-7.9 7-3.8 3.3-7.3 6.4-7.9 7-.6.5-5.2 4.6-10.1 9-13 11.5-26.6 24.4-44.4 41.8-11.7 11.6-39.4 40.4-49.7 51.7-9.6 10.7-15.7 17.5-18.4 20.6-5 5.8-15.5 18.1-17.5 20.5-8.4 10-21 25.6-25.9 31.9-3.1 4.1-6.8 8.8-8.2 10.5-15 18.9-43.8 60.8-59.7 87-12.1 20-16.7 29.9-17.1 36.8-1 16 9.2 29.6 24.8 33.2 9.7 2.3 16.5.7 29.9-6.7 4-2.2 10.1-5.6 13.7-7.6 15.7-8.6 59.8-34.1 83-48 6.9-4.1 13.9-8.3 15.7-9.3 1.7-1 4.9-2.8 7-4.1 2.1-1.3 4.8-2.8 5.8-3.5 1.1-.6 8.2-4.9 15.9-9.5 7.6-4.6 15-9 16.5-9.8 1.4-.9 10.5-6.3 20.1-12 9.6-5.8 18.3-10.9 19.3-11.5 3.6-2.1 43.3-25.8 45.7-27.4 1.4-.8 3.4-2.1 4.5-2.6 1.1-.6 12.6-7.4 25.5-15.2 58.1-34.7 130.4-76.3 165-95.1 3.6-1.9 7.9-4.3 9.5-5.2 4-2.4 13.9-7.7 37-20 64.6-34.4 134-67.3 175.5-83 27.9-10.6 53.5-19.2 74-25 6.3-1.7 13.8-3.8 16.5-4.6 6.5-1.8 29-7.1 33.5-7.9 1.9-.3 4.2-.8 5-1 .8-.2 2.9-.7 4.5-1 1.7-.3 4.1-.7 5.5-.9 6.5-1.2 21-3.6 25-4.1 2.5-.3 5.6-.8 7-1 1.4-.2 5.4-.7 9-1.1 3.6-.3 7.9-.8 9.5-1 14.2-1.7 56.2-2.3 73-1 14.5 1.2 15.9 1.3 32 3.7 7.4 1.1 32.9 6.4 38 7.9 13.8 4.2 32.7 10.5 35.7 12.1 2 1 4.3 1.9 5 1.9.6 0 8.9 3.8 18.2 8.4 33.8 16.7 63.8 38 75.1 53.1 1.6 2.2 3.3 4.2 3.7 4.5 2.1 1.7 10.2 20.2 12.2 28.3 3.1 12.1 3.9 19.1 4 34.2 0 11.2-1.1 30.2-1.9 31.5-.2.3-.6 2.4-.8 4.5-.5 3.9-2.2 13.6-3.2 18.2-1.1 4.9-1.4 6.2-4.3 17.8-3.1 11.9-12.2 41.2-14.7 47-.7 1.6-3 7.5-5 13-9.2 24.5-30.2 69.9-43.5 94-1.5 2.7-4 7.5-5.6 10.5-1.5 3-3.7 6.8-4.8 8.5-1.2 1.6-2 3.2-2 3.5.1.3-.4 1.4-1.1 2.5-1 1.7-4.3 7.4-16.6 29.2-2.9 5.2-24.1 40.1-29.5 48.6-14.7 23.4-59.3 89.5-70.9 105.3-1.6 2.3-4.8 6.7-7 9.8-2.2 3.2-6.2 8.8-9 12.6-2.7 3.7-5.7 7.8-6.5 9-.8 1.2-2.1 2.9-2.8 3.8-.7.9-9.1 12.3-18.8 25.2-9.6 12.9-18.5 24.8-19.8 26.5-1.3 1.6-5.1 6.6-8.5 11-3.3 4.4-6.4 8.4-6.8 9-.5.5-3.1 3.9-5.8 7.5-2.7 3.6-5.5 7.2-6.2 8-.7.8-8.3 10.5-16.9 21.5-21.4 27.2-38.6 48.7-63.3 79-3.6 4.4-6.8 8.2-7.1 8.5-.3.3-2.5 3-5 6-6.7 8.2-7 8.5-18.6 22.5-6 7.1-11.6 13.9-12.5 15-.9 1.1-13.5 15.9-28 33-14.5 17-27 31.8-27.9 32.8-3.5 4.2-5.3 6.4-8.3 9.7-1.8 1.9-5.7 6.4-8.7 10-3 3.6-5.9 7-6.5 7.6-.5.6-3.1 3.5-5.6 6.5-18.8 21.9-27.5 31.9-30.3 34.9-1.8 1.9-11.1 12.5-20.6 23.5-9.6 11-22.9 26.1-29.4 33.5-6.6 7.4-13.4 15-15.1 16.9-4 4.6-12.9 14.6-17.4 19.6-2 2.2-8.6 9.6-14.6 16.5-6.1 6.8-11.7 13.1-12.5 14-1.8 1.9-12.8 14.2-26.1 29-5.2 5.8-12.5 14.1-16.4 18.4-3.8 4.3-8.3 9.2-10 11-1.6 1.8-5.7 6.3-9 10.1-3.3 3.7-6.5 7.3-7 7.9-.6.6-5.3 5.8-10.4 11.6-8.4 9.4-13.3 14.9-29.1 32.4-2.5 2.8-4.9 5.6-5.5 6.2-3.4 3.8-14.2 16-15.5 17.4-.8.9-5.1 5.6-9.4 10.6-4.4 4.9-8.9 9.8-10 11-1.2 1.2-3.2 3.4-4.5 5-1.4 1.6-6.3 7.2-11 12.4-4.7 5.3-11.3 12.6-14.6 16.5-3.3 3.8-7.5 8.4-9.2 10.2-1.8 1.9-4.3 4.7-5.5 6.2-1.9 2.3-27.6 31.7-31.3 35.7-2.9 3.2-16.8 19.4-40.8 47.4-1.2 1.4-4.4 5.2-7.1 8.5-2.8 3.3-5.5 6.5-6.1 7.1-.5.6-2.6 3-4.5 5.4-3.6 4.5-9.1 11.1-10 12-.3.3-2.3 2.7-4.5 5.5-2.1 2.7-4.7 5.9-5.7 7-1 1.1-4 4.9-6.9 8.5-2.8 3.6-6.3 8.1-7.9 10-4.9 6.1-23.4 30.3-26 34-1.3 1.9-2.7 3.7-3 4-.3.3-1.4 1.8-2.6 3.5-1.1 1.6-4.2 6.1-6.9 10-9.6 13.9-11.1 16.1-16.6 25-13.6 21.8-24.8 44.5-28.4 57.5-.2.8-1.1 4-2 7-.8 3-1.8 7.1-2.1 9-.2 1.9-.9 5.7-1.5 8.5-1.1 5.9-.5 22.6 1.1 31 3.4 17.6 13.7 36.2 26.8 48.7 19.4 18.5 42.7 28.4 82.2 34.8 16.8 2.8 16.9 2.8 22 3.4 2.5.3 5.6.8 7 1 1.4.3 5 .7 8 1 3 .4 6.6.8 8 1 1.4.3 5.2.7 8.5 1.1 3.3.3 7.4.8 9 1.1 1.7.2 4.8.6 7 .8 2.2.3 6.5.7 9.5 1.1 3 .3 9.6 1 14.5 1.6 5 .6 10.6 1.2 12.5 1.4 6.2.8 20.3 2.4 26.5 3.1 3.3.3 6.8.8 7.7.9.9.2 4.8.7 8.5 1 3.7.4 7.5.8 8.3 1 .8.2 4.2.7 7.5 1.1 3.3.3 6.9.8 8 1 1.1.2 4.5.6 7.5.9 3 .4 6.2.8 7 1 .8.2 4.2.7 7.5 1.1 3.3.3 6.9.8 8 1 2.5.5 13.3 2.1 20 2.9 2.8.4 5.7.8 6.5 1 .8.2 3.8.7 6.5 1.1 2.8.3 5.9.8 7 1.1 1.1.2 3.4.6 5.2.8 1.7.3 9.8 1.6 18 3 8.1 1.4 16.4 2.8 18.3 3.1 6.2 1 48.1 9.4 62 12.5 13 2.9 15.1 3.4 19.5 4.3 1.1.2 4 .9 6.5 1.5 2.5.7 5.5 1.4 6.7 1.6 9.3 2.1 50.8 13.2 64.8 17.5 3.9 1.2 7.7 2.3 8.5 2.5 4.7 1 51.9 17.2 66 22.5 52.3 19.9 99.7 43.4 140 69.5 10.3 6.8 30.4 21 36.6 25.9 2.8 2.3 6.6 5.3 8.5 6.8 1.9 1.4 4.4 3.5 5.5 4.5 1.2 1 4.8 4 8 6.8 8 6.7 36.7 35.5 43.4 43.5 3 3.6 5.7 6.7 6 7 .3.3 3 3.6 6 7.5 3 3.8 5.7 7.2 6 7.5.3.3 4.2 5.9 8.6 12.5 30 44.3 49.2 90.5 59.9 144 2.3 11.5 2.9 14.9 4 23.3.3 2 .7 5 1 6.7.3 1.6.7 5.2 1 8 .3 2.7.7 6.8 1 9 2.5 23 2.6 86.8 0 102.6-.2 1.3-.6 5.8-1 9.9-.4 4.1-.8 8.8-1 10.5-.2 1.6-.6 5.5-1 8.5-.3 3-.8 6.6-1 8-.3 1.4-.7 4.3-1 6.5-.3 2.2-.7 5.1-.9 6.5-.3 1.4-.7 4.3-1.1 6.5-1.1 8.1-4.7 26.5-9.2 47.5-2.5 11.8-4.6 22.2-4.8 23-1.2 6.2-13.2 52.7-17 66-7.8 27.3-23.1 75.8-26.5 83.5-.5 1.1-2.5 6.7-4.6 12.5-8.4 24.1-28.5 73.1-39.9 97.5-2.5 5.5-5.6 12-6.7 14.5-4.1 9-21.4 43.7-25.9 52-2.5 4.7-6.6 12.4-9.2 17.2-4.8 9-6 11.1-13.5 24.3-28.8 50.9-69.3 111.3-108.2 161.4-15.4 19.8-41.1 51.2-49.5 60.5-.6.6-3.9 4.5-7.5 8.6s-6.7 7.7-7 8c-.3.3-5.5 5.9-11.5 12.5s-14.1 15.4-18 19.5c-11.7 12.4-60.3 60.8-71.4 71-5.6 5.2-12 11.1-14.1 13-8.1 7.5-12.1 11.1-27.5 24.6-8.8 7.8-23.4 20.3-32.5 27.8-17.6 14.7-17.9 14.9-25.5 21.1-2.8 2.2-5.7 4.5-6.5 5.2-11.8 9.7-51.8 40.3-66.4 50.8-1.5 1.1-3.6 2.7-4.6 3.5-8.2 6.6-55.9 39.8-92.5 64.3-25.6 17.1-36.1 24-72.5 47.6-10.2 6.6-19 12.5-19.7 13-.7.6-1.5 1.1-1.7 1.1-2.1 0-62.3 41.8-72.2 50.2-12.4 10.4-18.4 16.4-24.6 24.6-12.6 16.6-15.7 31.7-11.4 54.9 3.1 16.4 16.8 36.1 33.5 48 12.6 9.1 24.7 14 46.6 19.2 7 1.6 8.5 1.7 12.4.5 10-3 15.8-13.4 13.1-23.5-.9-3.1-2.7-5.9-6.4-9.4-2.8-2.8-6-6.3-7.1-7.9-1.1-1.5-4.1-5.6-6.6-8.9-9.1-12.4-15.9-25.7-14.6-29 1.5-4 29.9-24.2 57.7-41.2 12.2-7.4 41.7-25.3 45.2-27.4 9.4-5.5 35.1-21 39.3-23.7 2.8-1.7 12.2-7.6 21-12.9 8.8-5.4 18.5-11.4 21.5-13.3 3-1.9 7.1-4.5 9-5.7 51.4-32.2 90.3-58.7 152-103.5 28.8-20.9 97.9-76.2 115.6-92.5.6-.6 4.4-3.9 8.5-7.5 46-40.6 92.7-86.4 132-129.4 3-3.3 6.1-6.7 6.9-7.6 2.4-2.5 27-30.8 33-38 3-3.6 5.7-6.7 6-7 .3-.3 3.5-4.1 7-8.5 3.6-4.4 6.7-8.2 7-8.5.3-.3 3-3.6 6-7.5 3-3.8 6.3-7.9 7.2-9 2.1-2.5 16.6-21.4 19.3-25.1 1.1-1.5 3.8-5.1 6-8 15-19.7 40.9-57.3 58-83.9 3.2-5 7.2-11.3 9-14 4.5-7 27.5-45.5 27.5-46.1 0-.2 1-2.1 2.3-4.2 13.2-21.1 47.9-89.5 64.1-126.2 5.5-12.4 10.9-24.8 12.1-27.5 1.3-2.8 5.3-12.7 9-22 3.7-9.4 7.1-17.9 7.6-19 1.3-3 8.5-22.3 13.6-36.5 14.5-40.5 29.9-90.7 40.5-132 2.2-8.5 4.1-16.2 4.3-17 .2-.8 1.9-8.3 3.8-16.5 5.1-21.9 9.4-43.7 13.1-67 .6-3.9 3.4-24.6 4.1-31 .3-2.8.8-6.7 1.1-8.8.3-2.1.7-6.6.9-10 .3-3.4.7-8.7 1-11.7 1.8-19 2.4-65.9 1.1-89-1.3-22.4-1.3-22.9-4.1-45.3-.8-6.3-2.7-18.9-3.1-21.2-.3-1.1-.7-3.6-1-5.5-2-12.5-10-46.6-13.5-57.5-1.1-3.3-2.1-6.9-2.3-8-.8-3.6-12.2-35.7-14.6-41-.5-1.1-2.8-6.5-5.1-12-6-14.1-22.3-45.9-30.5-59.4-10.2-17-12.8-21-24.4-37.5-6.5-9.3-26.4-34.2-37-46.1-4.6-5.2-40-40.7-46.5-46.5-2.7-2.5-7.2-6.4-10-8.5-2.7-2.2-5.9-4.9-7-6-3.8-3.9-34.2-27.3-45.5-35.1-28.5-19.6-46-30.4-79.5-49.1-8.3-4.6-47.1-24-57.5-28.7-42.4-19.2-87.9-36.8-129.6-50-9.9-3.2-22.2-7.1-27.4-8.8-5.2-1.6-10.5-3.2-11.8-3.4-1.3-.3-4.2-1.1-6.5-1.9-3.7-1.2-31.4-9-35.7-10-.8-.1-5.8-1.4-11-2.8s-10.6-2.7-12-3c-1.4-.3-5.4-1.3-9-2.2l-8-2c-.8-.2-11.6-2.6-24-5.5-21.4-4.9-57.5-12.3-77.5-16-2.7-.5-9.9-1.8-16-3-6-1.1-13.7-2.5-17-3-3.3-.6-7.3-1.2-9-1.5-4.5-.8-13.6-2.4-17-2.9-1.6-.3-7-1.2-12-2-4.9-.8-10.6-1.7-12.5-2-1.9-.3-9.3-1.5-16.5-2.6-7.1-1.2-14.3-2.3-16-2.5-8.9-1.2-11.5-1.7-11.5-2.2 0-.7 5.8-7.9 12-14.8 2.5-2.8 7.2-8.2 10.5-11.9 3.3-3.8 7.1-8.1 8.5-9.6 1.4-1.5 5.4-6 9-10 6.2-7 11.5-12.9 24.5-27 3.3-3.6 7.8-8.5 10-10.9 2.2-2.4 5.4-5.8 7-7.6 1.7-1.7 7.7-8.3 13.5-14.5 14.3-15.4 14.9-16.1 28.1-30.1 6.4-6.8 13.1-14 14.9-15.9 3-3.3 26.9-28.4 37-39 7.6-8 37.2-39.1 49.9-52.5 3.6-3.9 14.5-15.3 24.1-25.5 9.6-10.1 19-20 20.8-21.9 16.3-17.3 29.5-31.2 33.2-35.1 4.1-4.3 24.1-25.6 30-31.9 3.5-3.8 25.6-27.3 31.2-33.3 2.6-2.8 8.7-9.3 13.5-14.5 4.8-5.3 10.2-11 11.8-12.8 5-5.2 25-26.8 27.6-29.6 1.3-1.5 6.5-7.1 11.4-12.5 10.5-11.3 11.1-12 21.9-23.9 4.6-5 10-11 12.2-13.4 2.1-2.4 5.3-5.9 6.9-7.6 3.8-4 16.8-18.5 22.1-24.5 2.1-2.5 4.6-5.2 5.4-6 .9-.8 6.5-7.1 12.5-14 6.1-6.9 11.5-13 12-13.6.6-.6 3.7-4.1 7-7.9 3.3-3.7 6.9-7.7 8-8.9 1.1-1.2 4.5-5.1 7.5-8.6s6-6.8 6.5-7.4c.6-.6 3.7-4.2 7-8.1 3.3-3.8 7.9-9 10.1-11.5 2.3-2.5 9.5-10.8 16-18.5 6.5-7.7 12.1-14.2 12.4-14.5 2.9-2.4 68.1-80.8 94.1-113 38.9-48.2 91.6-117.5 117.7-154.7.7-1 6-8.6 11.8-16.8 9.8-13.9 47.9-70.6 55-82 4-6.4 16.5-26.4 18.1-29 19.8-32.5 31.5-52.9 46.5-81 4.7-8.7 26.3-52.2 30.6-61.5 29-63.4 50.7-129.8 58.7-180 .3-1.9.8-4.2 1-5 .2-.8.7-3.9 1-6.9.4-3 .8-6.2 1-7.2.2-1 .7-4.9 1-8.6.4-3.7.9-7.7 1.1-8.8 2.1-11.4 2.1-66.1-.1-79.6-.2-1.3-.8-6.5-1.5-11.4-.6-5-1.7-12.4-2.5-16.5-.9-4.1-1.7-8.6-2-10-1.5-8-6.4-25.2-10.3-36-6.9-19.5-7-19.7-14.2-34.5-15.8-32.4-32.7-56.2-59.2-83-22.5-22.7-40.5-36.7-82.3-63.4-14.3-9.2-52.2-28.9-68.5-35.6-3.6-1.5-7.8-3.3-9.5-4-20.5-9.1-67.8-24.1-88-28.1-1.1-.2-3.1-.6-4.5-.9-10.2-2.2-26.5-5.4-30.5-5.9-2.3-.4-5.2-.8-6.5-1.1-2.3-.4-13-1.8-23.5-3-2.2-.3-5.8-.7-8-1-14.4-1.7-36.3-2.7-60.8-2.9-12-.1-21.9-.1-22 0z"/><path d="M1430.8 1166.5c-.2.2-3.7.6-7.8 1s-9.3.8-11.5 1c-3.7.4-10 1.2-15 1.9-1.1.2-4 .7-6.5 1-2.5.4-5.2.9-6 1.1-.8.2-3.1.7-5 1-24.4 4-68.3 17.7-98.5 30.8-50.3 21.7-107.3 60-156.5 105.1-9.7 8.9-47.3 46.8-54.5 55-3.9 4.3-7.9 8.8-9 10-3.9 4.1-31.9 37.4-37.5 44.6-1.9 2.5-3.7 4.7-4 5-1.1 1-24.8 32.7-34 45.5-13.6 18.9-29.7 43-45.1 67.5-18.2 28.8-29.3 47.6-45.9 77.5-1.8 3.3-4.3 7.8-5.6 10-8 14.5-17.7 33.2-31.9 62-15.4 31.2-17.6 36-23 48-1.3 2.7-3.9 8.6-6 13-11 23.7-35.7 83.7-46.2 112-2.4 6.6-4.8 12.9-5.3 14-3.8 8.6-28.6 81.5-36.9 109-1.7 5.5-3.6 11.4-4.1 13.2-.6 1.8-1.3 4-1.5 5-.2 1-2.2 7.9-4.5 15.3-2.2 7.4-6.1 21.1-8.6 30.5-2.6 9.3-5.7 20.8-6.9 25.5-2.4 8.5-11.4 44.7-12.1 48.5-.2 1.1-1.5 6.9-3 13-1.4 6-2.8 12.1-3 13.5-.3 1.4-.7 3.3-1 4.2-.3 1-.8 3-1 4.5-.3 1.6-1.4 6.8-2.5 11.8-1.2 4.9-2.3 10.1-2.5 11.5-.3 1.4-1.8 9.2-3.4 17.5-1.6 8.2-3.2 16.5-3.5 18.4-.3 1.9-.7 3.7-.9 4-.2.3-.7 2.6-1 5.1-.6 4.3-.9 6.2-2.1 12-.2 1.4-.7 3.9-1 5.6-.3 1.7-1.4 8.7-2.5 15.5-1.2 6.8-2.3 13.7-2.6 15.4-.2 1.6-.6 4.1-.9 5.5-.4 2.3-.8 4.8-2 13.7-.2 1.5-.6 4.1-.8 5.8-.3 1.6-.8 5.2-1.2 8-.3 2.7-.8 6.1-1 7.5-.8 5.2-3.4 25.7-4 31.5-.4 3.3-.8 7.1-1 8.5-.2 1.4-.6 5-1 8-.3 3-.8 7.1-1 9-.2 1.9-.7 6.4-1 10-.4 3.6-.8 8.3-1 10.5-1.2 12.4-2.2 23.9-3 35.5-.3 4.1-.8 10-1 13-.2 3-.7 10-1 15.5-.3 5.5-.7 13.6-1 18-2.4 43.4-2.4 112.7 0 155.5.8 15.7 1.7 28.8 2 32 .2 1.9.7 7.5 1 12.4.4 4.9.8 10.1 1 11.5.2 1.4.6 6 1 10.1.3 4.1.8 8.2 1 9 .2.8.7 4.9 1 9 .3 4.1.8 8.2 1 9 .2.8.7 4 1 7 .3 3 .7 6.2 1 7 .2.8.6 4 1 7.1.3 3.1.8 6.7 1 8 .3 1.3.7 3.7.9 5.4 1.4 10.2 5 30.4 7.7 44 1.2 5.5 2.3 11 2.5 12.2.8 4.7 1.3 7 3.4 16.3 2.9 12.6 2.3 10.4 7 28.5 5.1 20 4.8 18.9 10.5 38 7.9 27 25.9 75.7 35.1 95.2 1.9 4 3.4 7.5 3.4 7.8 0 .7 18.3 37.3 22.1 44.3 13.6 24.6 25.5 43.7 40.2 64.2 3.8 5.3 20.8 27 24.6 31.3 14.5 16.7 34.4 36.4 47.1 46.7 3 2.5 6.1 5.1 7 5.9.8.8 6 4.8 11.5 8.8 5.5 4 10.5 7.6 11 8.1 1.4 1.1 21 13.2 26.6 16.4 9.4 5.4 27.6 14.2 40.3 19.3 12.3 4.9 33.4 11.9 42.3 14 16.9 4 33.4 7.1 42.7 8.1 2.3.2 5.5.6 7.1.9 17.1 2.4 62.9 2.4 81.8 0 1.5-.2 5.5-.6 9-1 5.2-.6 19.2-2.8 32.2-5.2 5.4-.9 30.9-7.1 40.5-9.7 9.2-2.6 40.4-12.7 44.5-14.5 1.1-.5 4.7-1.9 8-3.2 23.3-8.8 65-28.2 89.5-41.5 12.1-6.6 38.7-22.1 43.8-25.5 2.4-1.6 4.5-2.9 4.7-2.9.2 0 4.4-2.5 9.2-5.6 41.9-26.9 77.9-52.8 119.8-86.3 12.1-9.6 22.2-17.8 22.5-18.1.3-.3 6.1-5.3 13-11 18.3-15.4 40.7-35.1 57.5-50.5 1.8-1.7 7.5-6.8 12.6-11.5s13.5-12.5 18.8-17.5c14.8-13.8 92.1-91.3 106.8-107 18.2-19.5 18.7-20 28.8-31 5-5.3 10.4-11.2 12-13 5.7-6.2 18.2-20 23-25.5 2.6-3 7.4-8.4 10.5-12 3.1-3.6 7.9-9 10.5-12 2.7-3 5.9-6.6 7.1-8 1.3-1.4 9.1-10.6 17.4-20.5 8.4-9.9 16.1-19.1 17.2-20.4 1.1-1.2 5.8-7.1 10.6-13 4.8-5.8 8.9-10.8 9.2-11.1 4.2-3.7 63-80.5 84.7-110.5 24.9-34.7 28-40.3 27.1-50.8-1.3-15.6-14.4-27-30.4-26.2-10.9.5-14.8 3.4-38.4 28.5-38.6 41.1-120.6 123-171.1 171.1-17.7 16.8-18 17.2-35 32.9-6.2 5.8-12.5 11.6-14 13-1.5 1.4-6 5.4-10 9-4 3.6-7.7 7-8.3 7.6-5.3 5.2-57.4 50.8-70.1 61.3-3.4 2.8-21.9 18.2-24.4 20.3-17.1 14.4-79.7 63.1-93.8 72.8-1.1.8-10.6 7.6-21 15-10.3 7.4-21.5 15.3-24.8 17.5-3.3 2.2-6.2 4.2-6.5 4.5-2.1 2.2-44 29-67 42.8-33.5 20.2-77.8 43.9-103 55.2-43 19.2-79.5 32.2-112 40-1.9.5-5.3 1.3-7.5 1.9-2.2.5-5.3 1.2-7 1.5-1.6.3-6.8 1.2-11.5 2-27.7 4.8-51.4 6.1-74 4.2-37.6-3.1-72-16.6-100-39.3-13.2-10.7-29.5-27.8-39-40.8-2.8-3.9-5.6-7.7-6.3-8.5-5.9-7.2-19.9-31.1-29.1-49.7-6.8-13.6-16.7-36.1-18.7-42.2-.4-1.4-1.7-5.1-2.9-8.1-9.5-23.9-25.4-82-28.6-104-.2-1.9-.7-4.6-1-6-.3-1.4-.8-3.6-1-5-.4-2.2-.9-5.6-1.9-11.5-1-5.4-3.5-23.7-4.1-29-.3-3.3-.8-7.4-1-9-.2-1.7-.6-5.7-.9-9-.4-3.3-.8-7.4-1-9-.2-1.7-.6-6.6-1-11-.3-4.4-.8-10.5-1-13.5-2.5-30-2.5-117.9-.1-143 .2-1.9.7-8.2 1-14 1.1-16.4 2.9-37.1 4.2-48 .3-2.5.7-6.1.9-8 .3-3.2.7-7 2.1-18.5.2-2.2.9-7.2 1.4-11 .5-3.9 1.2-9 1.5-11.5.4-2.5.8-5.6 1-7 .2-1.4.7-4.5 1-7 .3-2.5 2.2-14.2 4.1-26 3.4-21 5.6-33.8 9.4-52.5.5-2.8 1.2-6.5 1.5-8.4.3-1.9.7-3.7.9-4 .2-.3.7-2.2 1-4.1.7-4.5 5.6-27.6 9.6-45 1.7-7.4 3.3-14.2 3.5-15 3.5-15.8 18-70.5 24.1-91.5 2-6.6 3.7-12.7 3.9-13.5.2-.8 1.3-4.6 2.5-8.4 1.2-3.8 2.3-7.6 2.5-8.5 1.4-6.3 25.1-78.3 34-103.1 6.6-18.4 23.9-64.6 28-74.5.5-1.1.9-2.2 1-2.5.1-.3.5-1.4 1-2.5.4-1.1 1.7-4.3 2.7-7 1-2.8 2.3-5.9 2.8-7 .5-1.1 5.2-12.1 10.4-24.5 12.8-30.7 24.8-57.7 42.1-94.5 9.1-19.6 34.9-70.4 44.5-88 1.5-2.8 4.2-7.7 6-11 4.3-7.8 16.8-30.2 18.9-33.7.9-1.5 4.7-8 8.5-14.5 22-37.8 69.1-109 80.3-121.3 1.3-1.4 2.3-2.8 2.3-3.2 0-.3.6-1.3 1.3-2 .7-.7 3.3-4 5.7-7.3 2.5-3.3 4.7-6.2 5-6.5.3-.3 2.3-2.8 4.5-5.5 4.3-5.4 4.5-5.7 13.1-16 42.5-51.3 91.2-94.1 129.4-113.8 43.8-22.6 89.2-33.6 124.5-30.3 9.7 1 11 1.2 19 3.1 3.9.9 7.5 1.8 8 1.9 11.6 2.5 36.6 14.5 52.4 25.1 5.8 3.9 11.1 7.4 11.9 8 4.2 2.7 24.4 19.6 30.5 25.4 13 12.3 27.3 27.1 37.2 38.6 3.8 4.4 7.1 8.2 7.5 8.5.3.3 5 6.1 10.5 13s10.2 12.7 10.5 13c.3.3 4.3 5.7 9 12s8.7 11.7 9 12c.3.3 1 1.2 1.5 2.2.6.9 3.7 5.4 6.9 10 11 15.3 32.1 47.1 45 67.8 8.3 13.3 14.5 22.1 17.6 25 18.5 17.3 48.9 6.5 52.9-18.8.9-5.5.7-43.8-.3-54.7-1.5-16.9-1.8-20-2.1-22.9-.2-1.7-.6-5.6-1-8.6-.3-3-.8-6.6-1.1-8-.2-1.4-.6-4.5-.9-6.9-.2-2.4-.7-5.1-1-6-.2-.9-.7-3.2-.9-5.1-1.1-8.4-7-34.9-11.1-50-2.5-9.1-4.7-17.3-4.9-18.2-2.6-10-15.4-45-21.2-57.6-1.3-2.9-2.4-5.5-2.4-5.7 0-.8-14.5-29.7-18-36-20.6-36.8-42.4-65.9-69-92.5-5.8-5.8-12.4-12.1-14.5-14-8.7-7.7-16.3-13.9-23-18.8-3.8-2.8-7.5-5.6-8.2-6.2-1.6-1.3-17.5-11.6-23.8-15.3-8.3-4.9-28.6-15.3-35.5-18.2-3.6-1.5-7.8-3.3-9.5-4.1-7.9-3.5-40.8-13.8-50.7-15.8-.7-.2-2.4-.5-3.8-.9-4.8-1.1-13.5-2.6-18-3.2-2.5-.3-5.2-.8-6-1-.8-.2-4.4-.7-8-1.1-3.6-.3-8.5-.8-11-1.1-5-.5-54.7-1.2-55.2-.8z"/></svg>