<svg id="Black_Logos" data-name="Black Logos" xmlns="http://www.w3.org/2000/svg" viewBox="0 0 861.75 283.46"><defs><style>.cls-1{fill:#231f20;}.cls-2{fill:none;}</style></defs><title>black-inline</title><path class="cls-1" d="M119.31,170.15a1.27,1.27,0,0,0-.19-1.68,1.37,1.37,0,0,0-1.9.06l0,0-.36.37L115.78,170c-.94,1-2.32,2.35-4.12,4.1l-1.42,1.37L108.66,177c-1.1,1-2.3,2.13-3.6,3.27s-2.71,2.34-4.22,3.55-3.13,2.44-4.86,3.66-3.55,2.41-5.49,3.52a43.88,43.88,0,0,1-6.09,2.94A21.21,21.21,0,0,1,78,195.38a10.8,10.8,0,0,1-2.91-.23,8.06,8.06,0,0,1-2.5-1,9.68,9.68,0,0,1-2.15-1.86,14,14,0,0,1-1-1.24c-.15-.22-.3-.45-.44-.68s-.29-.49-.4-.7l-.09-.17,0,0,0,0-.06-.12-.24-.46c0-.07,0,0,0,0l0-.05,0-.1-.09-.2c-.07-.13-.12-.27-.18-.4q-.36-.81-.66-1.66c-.2-.57-.38-1.14-.55-1.73s-.32-1.18-.45-1.79a39.08,39.08,0,0,1-.85-7.57,57.44,57.44,0,0,1,.4-7.88,73.84,73.84,0,0,1,1.38-7.89q.45-2,1-3.89c.36-1.29.73-2.56,1.14-3.83s.83-2.52,1.28-3.76.92-2.46,1.41-3.66c1-2.41,2-4.75,3.17-7s2.32-4.4,3.57-6.42a55.66,55.66,0,0,1,3.93-5.6,30.65,30.65,0,0,1,4.17-4.35,15.78,15.78,0,0,1,2-1.46l.24-.14.06,0,0,0,.08,0,0,0,0,0,0,0,.19-.09.1,0,0,0,0,0,.14-.06c.37-.17.74-.33,1.1-.46a12.24,12.24,0,0,1,2-.58,8.35,8.35,0,0,1,1.73-.17,7.52,7.52,0,0,1,.81.06,7.79,7.79,0,0,1,.8.15,8,8,0,0,1,1.59.59,13.35,13.35,0,0,1,3,2.14,26.41,26.41,0,0,1,2.49,2.65c.73.88,1.36,1.73,1.9,2.49L106,127c.23.33.43.63.61.91l.48.73.34.53.21.32,0,0,0,0,0,0h0a1.48,1.48,0,0,0,1.13.69,1.46,1.46,0,0,0,1.6-1.29v0s0,0,0-.05,0,0,0-.07l0-.44c0-.19,0-.43,0-.7s0-.6,0-1-.06-.76-.11-1.21-.12-.93-.21-1.45a25.43,25.43,0,0,0-.89-3.58,22.63,22.63,0,0,0-1.95-4.37,19.45,19.45,0,0,0-1.64-2.39,17.44,17.44,0,0,0-2.32-2.38,15.28,15.28,0,0,0-1.47-1.11c-.26-.18-.54-.35-.82-.51s-.58-.32-.88-.47-.61-.29-.93-.43-.65-.26-1-.37a15.15,15.15,0,0,0-2.09-.55,17.13,17.13,0,0,0-4.4-.25,20.13,20.13,0,0,0-4.28.78c-.68.2-1.36.43-2,.69l-.24.1-.06,0-.13.06-.1,0-.19.08,0,0-.06,0-.15.07-.3.14-.15.07-.13.06-.51.26a25.71,25.71,0,0,0-3.71,2.38q-.85.65-1.65,1.35t-1.55,1.43c-.5.49-1,1-1.46,1.5s-.93,1-1.38,1.56a59.44,59.44,0,0,0-4.9,6.75,76.6,76.6,0,0,0-4.09,7.42q-1.86,3.85-3.37,8-.38,1-.73,2.06c-.23.69-.46,1.39-.68,2.09-.44,1.4-.86,2.82-1.23,4.25a87.81,87.81,0,0,0-2.85,17.75,66.41,66.41,0,0,0,.12,9.16q.19,2.3.59,4.6a44.62,44.62,0,0,0,1,4.56,38.3,38.3,0,0,0,1.55,4.47c.31.73.64,1.45,1,2.17.09.18.18.36.28.53l.31.58.26.45.07.11.08.14.17.28c.23.39.45.71.68,1.06s.48.68.73,1a21,21,0,0,0,1.67,1.94,18.42,18.42,0,0,0,2,1.76A16.7,16.7,0,0,0,68.58,201,15.94,15.94,0,0,0,71.1,202a16.3,16.3,0,0,0,2.62.63,18.36,18.36,0,0,0,5.07.05,24.41,24.41,0,0,0,4.51-1,33.1,33.1,0,0,0,4-1.61c1.24-.59,2.41-1.24,3.53-1.91s2.17-1.37,3.18-2.07c2-1.42,3.86-2.88,5.57-4.33s3.28-2.9,4.73-4.29,2.8-2.76,4-4.05c2.47-2.59,4.51-4.92,6.14-6.89s2.84-3.56,3.65-4.66c.41-.55.71-1,.92-1.26l.31-.45m55.7-99a15,15,0,0,0-.81-4.27,13.82,13.82,0,0,0-2.19-4,14.85,14.85,0,0,0-1.51-1.64c-.27-.25-.54-.49-.81-.71l-.24-.19-.12-.09-.09-.07-.15-.11-.13-.1-.09-.07a27.11,27.11,0,0,0-3-1.9,26.45,26.45,0,0,0-10-3,31.78,31.78,0,0,0-6.44.06,39.46,39.46,0,0,0-5.83,1.09,51,51,0,0,0-5.21,1.69q-2.47.94-4.67,2c-1.47.71-2.84,1.47-4.14,2.24a61.13,61.13,0,0,0-6.87,4.78,63.58,63.58,0,0,0-5.21,4.67A56.25,56.25,0,0,0,111.17,79c-.64.93-1.11,1.66-1.41,2.17-.15.25-.26.45-.34.58l-.09.15,0,.05a1.42,1.42,0,0,0,0,1.35,1.51,1.51,0,0,0,2,.57h0l.05,0,.14-.07.57-.31c.5-.27,1.24-.69,2.19-1.22l3.47-2,4.6-2.69c1.71-1,3.59-2.1,5.64-3.25s4.24-2.37,6.6-3.58c1.18-.6,2.39-1.21,3.65-1.8s2.54-1.16,3.88-1.67a34.56,34.56,0,0,1,8.4-2.14,18.62,18.62,0,0,1,8.4.84,15.92,15.92,0,0,1,1.94.86A16.6,16.6,0,0,1,162.75,68l.06,0h0l0,0,.15.11.05,0,0,0,0,0,.29.24a5,5,0,0,1,.47.5,3.86,3.86,0,0,1,.63,1.12,5.33,5.33,0,0,1,.29,1.52,9.67,9.67,0,0,1-.11,2,21.12,21.12,0,0,1-1.4,4.73,44.33,44.33,0,0,1-2.5,5.05c-1,1.7-2,3.4-3.18,5.11s-2.37,3.4-3.64,5.09q-1,1.27-1.95,2.54t-2,2.54c-2.73,3.38-5.62,6.73-8.59,10.09s-6,6.72-9.14,10.09l-4.66,5.1c-1.56,1.71-3.12,3.44-4.67,5.22-.77.89-1.54,1.8-2.31,2.73s-1.53,1.9-2.29,3c-.19.27-.38.56-.58.85s-.39.62-.58,1c-.1.18-.2.37-.3.58s-.2.43-.3.7a7.48,7.48,0,0,0-.3,1c0,.09,0,.2-.06.31a3.9,3.9,0,0,0,0,1.72,4.23,4.23,0,0,0,.91,1.79,4.6,4.6,0,0,0,.81.74,4.82,4.82,0,0,0,.55.34l.4.19c.23.1.4.16.57.21.32.1.55.16.77.21.44.1.79.16,1.13.22.68.11,1.29.18,1.89.26l3.49.4c1.14.13,2.26.27,3.37.42,2.23.3,4.42.65,6.56,1.1a63.85,63.85,0,0,1,6.26,1.6,41.91,41.91,0,0,1,5.8,2.28,27.92,27.92,0,0,1,5,3.1,19.38,19.38,0,0,1,3.85,4,17,17,0,0,1,2.37,4.81,20.41,20.41,0,0,1,.87,5.35,29.06,29.06,0,0,1-.38,5.53c-.07.46-.15.92-.24,1.37l-.14.7-.15.69q-.31,1.39-.68,2.75a60.35,60.35,0,0,1-3.81,10.26,61,61,0,0,1-5.24,8.87,65.48,65.48,0,0,1-6.1,7.38,77,77,0,0,1-6.38,6c-2.12,1.76-4.19,3.32-6.15,4.7s-3.83,2.59-5.53,3.68l-2.43,1.54c-.77.49-1.5,1-2.18,1.43-.34.24-.67.48-1,.73a8.35,8.35,0,0,0-1,.88,3.82,3.82,0,0,0-.52.69,2.64,2.64,0,0,0-.25.57l0,.09,0,.13v.14l0,.13a3.24,3.24,0,0,0,.23,1.53,3.59,3.59,0,0,0,.64,1,4.14,4.14,0,0,0,.68.62,4.85,4.85,0,0,0,1.14.62,4.59,4.59,0,0,0,.74.22l.28,0a.89.89,0,0,0,1.18-.38.85.85,0,0,0-.39-1.15,7.18,7.18,0,0,0-.45-.61c-.14-.19-.32-.43-.47-.69A3,3,0,0,1,122,227a1,1,0,0,1-.07-.29l0,0a5.71,5.71,0,0,1,.6-.49c.25-.18.54-.38.86-.58.63-.4,1.34-.83,2.11-1.29l2.48-1.47a116.24,116.24,0,0,0,12.38-8.27,81.76,81.76,0,0,0,7-6,72.3,72.3,0,0,0,6.81-7.65,65.36,65.36,0,0,0,10.61-20.36q.46-1.46.86-3l.2-.76.19-.76c.12-.52.24-1,.35-1.57a34.67,34.67,0,0,0,.71-6.6,26.36,26.36,0,0,0-.85-7,23.22,23.22,0,0,0-3-6.71,26,26,0,0,0-5-5.59,34.47,34.47,0,0,0-6.16-4.15,48.92,48.92,0,0,0-6.72-2.94,69.69,69.69,0,0,0-7-2.06c-2.35-.57-4.71-1-7.07-1.44-1.18-.2-2.35-.38-3.52-.56l-.78-.12.17-.2c.72-.82,1.47-1.64,2.24-2.47,1.53-1.65,3.11-3.3,4.7-4.94l4.8-4.95c3.2-3.31,6.4-6.63,9.52-10s6.17-6.77,9.1-10.24q1.1-1.3,2.17-2.62t2.11-2.66c1.39-1.78,2.73-3.59,4-5.44s2.52-3.74,3.67-5.69A54.14,54.14,0,0,0,172.67,82a34.6,34.6,0,0,0,1.23-3.33,26.53,26.53,0,0,0,.86-3.61,19.35,19.35,0,0,0,.25-4m-53.1,155.46v0l0,.07a.24.24,0,0,1,0-.12v0s0,0,0,0v0m.24-90,.08,0h0l-.07,0"/><path class="cls-1" d="M244.5,172.11c0-17.72,13.42-29.67,31-29.67,13.85,0,21.24,7.83,25,15.39l-12.73,6a13.77,13.77,0,0,0-12.3-8.34c-9.37,0-16,7.22-16,16.6s6.62,16.6,16,16.6a13.77,13.77,0,0,0,12.3-8.34l12.73,6c-3.7,7.4-11.18,15.39-25,15.39C257.91,201.78,244.5,189.74,244.5,172.11Z"/><path class="cls-1" d="M388.54,200.75v-23H364.72v23H349.93V143.38h14.79V164.8h23.82V143.38h14.79v57.36Z"/><path class="cls-1" d="M456.66,177.53V143.38h15V177c0,6.79,4,11.7,12.13,11.7,7.91,0,12-4.9,12-11.7V143.38h15v34.06c0,14.28-8.69,24.34-27,24.34C465.34,201.78,456.66,191.63,456.66,177.53Z"/><path class="cls-1" d="M596.15,200.75l-9.63-19.26h-7.57v19.26H564.16V143.38h28.72c12.73,0,20,8.43,20,19.09,0,10-6.11,15.31-11.44,17.2l11.7,21.07Zm1.63-38.36c0-3.87-3.27-6.11-7.14-6.11h-11.7v12.3h11.7C594.51,168.58,597.78,166.43,597.78,162.39Z"/><path class="cls-1" d="M661.08,172.11c0-17.72,13.42-29.67,31-29.67,13.85,0,21.24,7.83,25,15.39l-12.73,6a13.77,13.77,0,0,0-12.3-8.34c-9.37,0-16,7.22-16,16.6s6.62,16.6,16,16.6a13.77,13.77,0,0,0,12.3-8.34l12.73,6c-3.7,7.4-11.18,15.39-25,15.39C674.49,201.78,661.08,189.74,661.08,172.11Z"/><path class="cls-1" d="M805.13,200.75v-23H781.3v23H766.51V143.38H781.3V164.8h23.82V143.38h14.79v57.36Z"/><rect class="cls-2" width="1218.9" height="283.46"/></svg>