<?xml version="1.0" encoding="UTF-8" standalone="no"?><!DOCTYPE svg PUBLIC "-//W3C//DTD SVG 1.1//EN" "http://www.w3.org/Graphics/SVG/1.1/DTD/svg11.dtd"><svg width="100%" height="100%" version="1.1" viewBox="0 0 346 50" xmlns="http://www.w3.org/2000/svg" xmlns:xlink="http://www.w3.org/1999/xlink" xml:space="preserve" style="fill-rule:evenodd;clip-rule:evenodd;stroke-linejoin:round;stroke-miterlimit:1.41421;"><g id="Black-Logos"><g transform="matrix(0.0840184,0,0,0.0840184,0,0)"><path d="M292.13,209.205l8.858,0l-25.972,-30.1l23.908,-27.262l-8.944,0l-25.37,29.67l0,-29.67l-7.138,0l0,57.362l7.138,0l0,-19.264l5.762,-6.536l21.758,25.8Z" style="fill:#fff;fill-rule:nonzero;"/><path d="M352.202,209.205l37.582,0l0,-6.364l-30.444,0l0,-19.78l29.842,0l0,-6.364l-29.842,0l0,-18.49l30.444,0l0,-6.364l-37.582,0l0,57.362Z" style="fill:#fff;fill-rule:nonzero;"/><path d="M444.181,209.205l33.798,0l0,-6.364l-26.66,0l0,-50.998l-7.138,0l0,57.362Z" style="fill:#fff;fill-rule:nonzero;"/><path d="M528.667,180.567c0,16.942 11.438,29.67 28.466,29.67c16.942,0 28.466,-12.728 28.466,-29.67c0,-16.942 -11.524,-29.67 -28.466,-29.67c-17.028,0 -28.466,12.728 -28.466,29.67ZM578.203,180.567c0,13.33 -8.256,23.306 -21.07,23.306c-12.9,0 -21.07,-9.976 -21.07,-23.306c0,-13.416 8.17,-23.306 21.07,-23.306c12.814,0 21.07,9.89 21.07,23.306Z" style="fill:#fff;fill-rule:nonzero;"/><path d="M683.684,209.205l7.74,0l16.34,-57.362l-7.912,0l-12.642,47.816l-13.158,-47.816l-5.934,0l-13.158,47.816l-12.728,-47.816l-7.912,0l16.34,57.362l7.74,0l12.642,-46.268l12.642,46.268Z" style="fill:#fff;fill-rule:nonzero;"/><path d="M799.301,209.205l6.88,0l0,-57.362l-7.138,0l0,44.806l-33.024,-44.806l-7.31,0l0,57.362l7.138,0l0,-45.752l33.454,45.752Z" style="fill:#fff;fill-rule:nonzero;"/><path d="M903.578,209.205l8.17,0l-23.134,-57.362l-8.858,0l-23.048,57.362l8.17,0l5.074,-12.728l28.552,0l5.074,12.728ZM884.228,159.239l12.126,30.874l-24.338,0l12.212,-30.874Z" style="fill:#fff;fill-rule:nonzero;"/><path d="M955.47,210.925l5.074,0l20.382,-60.802l-5.074,0l-20.382,60.802Z" style="fill:#fff;fill-rule:nonzero;"/><path d="M1063.87,209.205l8.428,0l-15.48,-23.392c7.826,-0.688 14.878,-6.364 14.878,-16.684c0,-10.578 -7.482,-17.286 -17.974,-17.286l-23.048,0l0,57.362l7.138,0l0,-22.79l11.438,0l14.62,22.79ZM1064.3,169.129c0,6.45 -4.644,11.008 -11.438,11.008l-15.05,0l0,-21.93l15.05,0c6.794,0 11.438,4.472 11.438,10.922Z" style="fill:#fff;fill-rule:nonzero;"/><path d="M1125.91,209.205l37.582,0l0,-6.364l-30.444,0l0,-19.78l29.842,0l0,-6.364l-29.842,0l0,-18.49l30.444,0l0,-6.364l-37.582,0l0,57.362Z" style="fill:#fff;fill-rule:nonzero;"/><path d="M1235.01,209.205l8.858,0l23.134,-57.362l-8.17,0l-19.35,49.536l-19.35,-49.536l-8.17,0l23.048,57.362Z" style="fill:#fff;fill-rule:nonzero;"/><path d="M1317.43,209.205l37.582,0l0,-6.364l-30.444,0l0,-19.78l29.842,0l0,-6.364l-29.842,0l0,-18.49l30.444,0l0,-6.364l-37.582,0l0,57.362Z" style="fill:#fff;fill-rule:nonzero;"/><path d="M1409.41,209.205l33.798,0l0,-6.364l-26.66,0l0,-50.998l-7.138,0l0,57.362Z" style="fill:#fff;fill-rule:nonzero;"/><path d="M1492.78,201.121c4.73,5.332 12.04,9.116 22.016,9.116c15.48,0 21.156,-8.514 21.156,-16.856c0,-12.04 -10.664,-14.964 -20.038,-17.458c-7.31,-1.978 -13.932,-3.698 -13.932,-9.46c0,-5.418 4.902,-9.116 11.782,-9.116c6.278,0 12.298,2.15 16.598,6.88l4.3,-5.246c-4.816,-5.074 -11.61,-7.998 -20.382,-7.998c-11.266,0 -19.694,6.45 -19.694,15.91c0,11.266 10.234,13.846 19.436,16.254c7.568,2.064 14.534,3.956 14.534,10.836c0,4.386 -3.268,9.89 -13.502,9.89c-8.084,0 -14.276,-3.956 -18.06,-8.17l-4.214,5.418Z" style="fill:#fff;fill-rule:nonzero;"/><path d="M1603.85,209.205l7.138,0l0,-50.998l18.232,0l0,-6.364l-43.516,0l0,6.364l18.146,0l0,50.998Z" style="fill:#fff;fill-rule:nonzero;"/><path d="M1679.4,180.567c0,16.942 11.438,29.67 28.466,29.67c16.942,0 28.466,-12.728 28.466,-29.67c0,-16.942 -11.524,-29.67 -28.466,-29.67c-17.028,0 -28.466,12.728 -28.466,29.67ZM1728.93,180.567c0,13.33 -8.256,23.306 -21.07,23.306c-12.9,0 -21.07,-9.976 -21.07,-23.306c0,-13.416 8.17,-23.306 21.07,-23.306c12.814,0 21.07,9.89 21.07,23.306Z" style="fill:#fff;fill-rule:nonzero;"/><path d="M1825.12,209.205l8.858,0l-25.972,-30.1l23.908,-27.262l-8.944,0l-25.37,29.67l0,-29.67l-7.138,0l0,57.362l7.138,0l0,-19.264l5.762,-6.536l21.758,25.8Z" style="fill:#fff;fill-rule:nonzero;"/><path d="M1885.19,209.205l37.582,0l0,-6.364l-30.444,0l0,-19.78l29.842,0l0,-6.364l-29.842,0l0,-18.49l30.444,0l0,-6.364l-37.582,0l0,57.362Z" style="fill:#fff;fill-rule:nonzero;"/></g><path d="M10.978,12.188c0.002,0.001 0.004,0.001 0.007,0.002c0,0 -0.001,0 -0.001,0c-0.005,-0.001 -0.009,-0.003 -0.006,-0.002M10.958,19.751l-0.001,0.003c-0.001,0.003 -0.001,0.005 -0.002,0.006c0,-0.005 0.002,-0.008 0.003,-0.01c0,0.001 0,0.001 0,0.002c0,0 -0.001,0.001 0,0l0,-0.002l0.001,-0.005c-0.001,0.008 -0.001,0.004 -0.001,0.006M15.419,6.69c-0.005,-0.117 -0.026,-0.239 -0.067,-0.359c-0.042,-0.12 -0.105,-0.236 -0.184,-0.336c-0.04,-0.05 -0.082,-0.096 -0.127,-0.137c-0.022,-0.022 -0.045,-0.041 -0.068,-0.06l-0.02,-0.016l-0.01,-0.008l-0.008,-0.006l-0.012,-0.009l-0.011,-0.008l-0.008,-0.006c-0.081,-0.058 -0.167,-0.112 -0.255,-0.159c-0.089,-0.047 -0.181,-0.088 -0.275,-0.122c-0.186,-0.069 -0.379,-0.11 -0.566,-0.127c-0.187,-0.019 -0.369,-0.014 -0.541,0.005c-0.172,0.018 -0.336,0.051 -0.49,0.091c-0.155,0.041 -0.3,0.089 -0.438,0.142c-0.138,0.053 -0.269,0.109 -0.392,0.169c-0.123,0.06 -0.239,0.124 -0.348,0.189c-0.218,0.13 -0.409,0.267 -0.578,0.401c-0.167,0.135 -0.313,0.268 -0.438,0.393c-0.249,0.25 -0.419,0.469 -0.528,0.624c-0.054,0.078 -0.093,0.139 -0.118,0.182c-0.013,0.021 -0.022,0.038 -0.029,0.049c-0.003,0.005 -0.006,0.01 -0.007,0.013c-0.001,0.003 -0.002,0.004 -0.002,0.004c-0.018,0.035 -0.019,0.077 0.002,0.113c0.033,0.059 0.109,0.081 0.17,0.049l0,-0.001c0,0 0.001,0 0.004,-0.002c0.003,-0.001 0.007,-0.003 0.012,-0.006c0.011,-0.006 0.027,-0.014 0.048,-0.026c0.042,-0.022 0.104,-0.057 0.184,-0.102c0.08,-0.046 0.178,-0.102 0.291,-0.168c0.113,-0.066 0.242,-0.142 0.387,-0.226c0.144,-0.084 0.302,-0.177 0.474,-0.274c0.171,-0.097 0.356,-0.199 0.554,-0.301c0.099,-0.051 0.201,-0.101 0.306,-0.151c0.106,-0.049 0.214,-0.097 0.326,-0.14c0.225,-0.085 0.464,-0.153 0.707,-0.179c0.242,-0.027 0.483,-0.01 0.705,0.07c0.056,0.021 0.11,0.044 0.163,0.073c0.054,0.028 0.106,0.06 0.156,0.096l0.005,0.003c0.001,0.001 0.001,0 0,0c0,0 0.001,0 0.002,0.001l0.012,0.009c0.002,0.002 0.004,0.003 0.004,0.004l0.002,0.001l0.004,0.003c0.009,0.007 0.017,0.014 0.024,0.021c0.015,0.014 0.028,0.028 0.04,0.042c0.023,0.029 0.04,0.058 0.052,0.094c0.013,0.036 0.022,0.078 0.025,0.128c0.003,0.05 -0.001,0.106 -0.01,0.167c-0.018,0.122 -0.06,0.258 -0.117,0.397c-0.057,0.139 -0.129,0.282 -0.211,0.425c-0.081,0.142 -0.171,0.286 -0.267,0.429c-0.096,0.142 -0.199,0.285 -0.306,0.427c-0.053,0.071 -0.108,0.143 -0.164,0.213c-0.055,0.072 -0.112,0.143 -0.169,0.214c-0.229,0.283 -0.472,0.565 -0.722,0.847c-0.25,0.283 -0.507,0.565 -0.768,0.849c-0.13,0.142 -0.261,0.285 -0.392,0.428c-0.131,0.144 -0.262,0.289 -0.392,0.438c-0.066,0.075 -0.13,0.151 -0.195,0.23c-0.064,0.079 -0.128,0.16 -0.192,0.251c-0.017,0.023 -0.033,0.047 -0.049,0.072c-0.016,0.025 -0.032,0.052 -0.049,0.082c-0.008,0.015 -0.017,0.031 -0.025,0.048c-0.009,0.018 -0.017,0.037 -0.026,0.059c-0.008,0.022 -0.017,0.047 -0.025,0.08c-0.001,0.008 -0.003,0.016 -0.005,0.026c0.003,0.003 -0.018,0.041 0.003,0.144c0.016,0.07 0.051,0.121 0.077,0.151c0.026,0.03 0.051,0.05 0.068,0.062c0.019,0.013 0.033,0.021 0.046,0.029c0.013,0.006 0.024,0.011 0.034,0.016c0.019,0.008 0.034,0.013 0.047,0.018c0.027,0.008 0.046,0.013 0.065,0.018c0.037,0.008 0.067,0.013 0.095,0.018c0.057,0.009 0.109,0.015 0.159,0.022c0.101,0.012 0.198,0.022 0.293,0.033c0.096,0.011 0.19,0.022 0.284,0.035c0.187,0.025 0.371,0.055 0.551,0.092c0.181,0.037 0.357,0.081 0.527,0.135c0.17,0.053 0.333,0.116 0.487,0.191c0.153,0.075 0.296,0.161 0.422,0.261c0.126,0.099 0.236,0.211 0.324,0.336c0.088,0.124 0.154,0.26 0.199,0.404c0.044,0.144 0.067,0.296 0.073,0.45c0.005,0.154 -0.008,0.309 -0.032,0.464c-0.006,0.038 -0.013,0.077 -0.021,0.115c-0.004,0.02 -0.008,0.04 -0.012,0.059c-0.004,0.02 -0.008,0.039 -0.013,0.059c-0.017,0.078 -0.036,0.155 -0.057,0.231c-0.082,0.304 -0.191,0.593 -0.32,0.862c-0.129,0.269 -0.278,0.518 -0.44,0.746c-0.161,0.227 -0.335,0.434 -0.512,0.62c-0.178,0.186 -0.359,0.352 -0.536,0.5c-0.178,0.148 -0.352,0.279 -0.517,0.395c-0.166,0.116 -0.322,0.218 -0.465,0.309c-0.072,0.045 -0.14,0.089 -0.205,0.13c-0.064,0.041 -0.125,0.08 -0.183,0.12c-0.029,0.02 -0.056,0.04 -0.084,0.061c-0.028,0.022 -0.054,0.044 -0.082,0.074c-0.014,0.016 -0.029,0.033 -0.044,0.058c-0.007,0.013 -0.015,0.029 -0.021,0.048c0,0.003 -0.001,0.005 -0.002,0.008c-0.001,0.004 0,0.002 -0.002,0.011l-0.001,0.005l-0.001,0.007l-0.001,0.011c-0.005,0.048 0.004,0.093 0.019,0.128c0.015,0.036 0.035,0.064 0.054,0.085c0.019,0.022 0.039,0.039 0.057,0.052c0.037,0.027 0.069,0.042 0.096,0.052c0.027,0.01 0.048,0.015 0.062,0.018c0.014,0.003 0.023,0.004 0.024,0.004c0.036,0.018 0.081,0.004 0.099,-0.032c0.018,-0.035 0.004,-0.078 -0.033,-0.096c0.002,0.001 -0.013,-0.019 -0.038,-0.052c-0.012,-0.016 -0.026,-0.036 -0.039,-0.058c-0.007,-0.011 -0.012,-0.022 -0.017,-0.033c-0.003,-0.009 -0.005,-0.017 -0.006,-0.024c0.001,-0.001 0.002,-0.002 0.004,-0.003c0.01,-0.011 0.029,-0.026 0.05,-0.041c0.021,-0.016 0.045,-0.032 0.072,-0.049c0.052,-0.034 0.113,-0.07 0.177,-0.109c0.066,-0.038 0.135,-0.079 0.209,-0.123c0.296,-0.175 0.656,-0.397 1.04,-0.694c0.192,-0.149 0.39,-0.318 0.585,-0.508c0.195,-0.191 0.389,-0.405 0.572,-0.643c0.183,-0.238 0.355,-0.501 0.507,-0.787c0.151,-0.286 0.281,-0.596 0.384,-0.924c0.026,-0.082 0.05,-0.165 0.072,-0.249c0.006,-0.021 0.011,-0.042 0.017,-0.063c0.005,-0.022 0.01,-0.043 0.015,-0.064c0.011,-0.043 0.021,-0.087 0.03,-0.132c0.035,-0.178 0.058,-0.363 0.059,-0.554c0.002,-0.191 -0.019,-0.389 -0.071,-0.584c-0.026,-0.098 -0.06,-0.195 -0.102,-0.29c-0.041,-0.094 -0.091,-0.186 -0.148,-0.274c-0.114,-0.176 -0.257,-0.334 -0.417,-0.47c-0.159,-0.136 -0.334,-0.251 -0.517,-0.349c-0.182,-0.097 -0.372,-0.178 -0.564,-0.247c-0.193,-0.069 -0.389,-0.125 -0.586,-0.173c-0.197,-0.048 -0.396,-0.087 -0.594,-0.121c-0.099,-0.017 -0.198,-0.032 -0.296,-0.047c-0.022,-0.003 -0.043,-0.006 -0.065,-0.01c0.005,-0.005 0.009,-0.011 0.014,-0.017c0.061,-0.069 0.124,-0.138 0.188,-0.207c0.129,-0.139 0.262,-0.277 0.395,-0.415c0.135,-0.139 0.27,-0.278 0.404,-0.416c0.269,-0.278 0.537,-0.557 0.8,-0.84c0.262,-0.282 0.519,-0.568 0.765,-0.86c0.061,-0.073 0.122,-0.146 0.182,-0.22c0.06,-0.074 0.119,-0.148 0.178,-0.223c0.116,-0.15 0.229,-0.302 0.338,-0.458c0.108,-0.155 0.212,-0.314 0.308,-0.478c0.096,-0.164 0.186,-0.334 0.262,-0.515c0.039,-0.09 0.074,-0.183 0.104,-0.28c0.03,-0.097 0.055,-0.197 0.072,-0.303c0.018,-0.106 0.027,-0.218 0.021,-0.334M10.739,15.01c0.031,-0.044 0.025,-0.104 -0.016,-0.141c-0.046,-0.042 -0.117,-0.039 -0.16,0.005l-0.001,0.002c0,0 -0.01,0.01 -0.03,0.031c-0.02,0.02 -0.051,0.051 -0.09,0.091c-0.079,0.081 -0.195,0.198 -0.346,0.344c-0.038,0.037 -0.078,0.075 -0.12,0.115c-0.042,0.04 -0.086,0.082 -0.132,0.125c-0.092,0.087 -0.193,0.179 -0.303,0.275c-0.109,0.096 -0.227,0.197 -0.354,0.298c-0.128,0.102 -0.263,0.206 -0.408,0.308c-0.145,0.101 -0.299,0.202 -0.462,0.295c-0.162,0.093 -0.334,0.179 -0.511,0.247c-0.177,0.068 -0.361,0.116 -0.534,0.125c-0.086,0.004 -0.169,-0.002 -0.245,-0.019c-0.076,-0.017 -0.145,-0.046 -0.21,-0.086c-0.064,-0.04 -0.124,-0.092 -0.18,-0.156c-0.028,-0.032 -0.054,-0.067 -0.08,-0.104c-0.013,-0.018 -0.025,-0.038 -0.037,-0.058c-0.012,-0.019 -0.025,-0.04 -0.034,-0.059l-0.008,-0.013l-0.002,-0.004l-0.002,-0.004l-0.005,-0.01l-0.02,-0.038c-0.003,-0.006 0.001,0.002 0,0l-0.002,-0.005l-0.004,-0.008l-0.008,-0.017c-0.005,-0.011 -0.01,-0.022 -0.015,-0.034c-0.02,-0.045 -0.038,-0.091 -0.056,-0.139c-0.016,-0.047 -0.032,-0.096 -0.046,-0.145c-0.014,-0.049 -0.027,-0.1 -0.038,-0.15c-0.045,-0.204 -0.067,-0.418 -0.072,-0.636c-0.004,-0.218 0.008,-0.44 0.034,-0.662c0.026,-0.222 0.066,-0.444 0.116,-0.663c0.025,-0.109 0.052,-0.218 0.082,-0.327c0.03,-0.108 0.062,-0.215 0.096,-0.321c0.034,-0.107 0.07,-0.212 0.108,-0.316c0.038,-0.104 0.077,-0.206 0.118,-0.308c0.083,-0.202 0.172,-0.399 0.267,-0.587c0.094,-0.189 0.194,-0.37 0.3,-0.539c0.105,-0.17 0.215,-0.329 0.33,-0.471c0.114,-0.142 0.233,-0.267 0.35,-0.365c0.059,-0.048 0.117,-0.09 0.171,-0.122c0.007,-0.004 0.014,-0.008 0.021,-0.012l0.005,-0.003l0.003,-0.002l0.007,-0.003l0.003,-0.002c0.001,-0.001 0.002,-0.001 0.004,-0.002l0.004,-0.002l0.015,-0.007l0.008,-0.004c0.008,-0.003 -0.005,0.002 -0.002,0.001l0.003,-0.002l0.011,-0.005c0.032,-0.014 0.063,-0.027 0.093,-0.038c0.06,-0.023 0.116,-0.039 0.168,-0.05c0.052,-0.01 0.099,-0.014 0.145,-0.014c0.023,0.001 0.046,0.002 0.068,0.005c0.022,0.003 0.045,0.007 0.067,0.012c0.044,0.012 0.089,0.028 0.134,0.05c0.089,0.044 0.176,0.109 0.254,0.18c0.078,0.071 0.148,0.148 0.21,0.222c0.061,0.074 0.114,0.146 0.16,0.209c0.022,0.032 0.043,0.062 0.062,0.09c0.019,0.028 0.036,0.053 0.051,0.077c0.015,0.023 0.029,0.043 0.04,0.061c0.012,0.018 0.021,0.033 0.029,0.045c0.008,0.012 0.014,0.021 0.018,0.027c0,0.001 0.001,0.003 0.002,0.004c0.001,0.001 0.001,0.001 0.002,0.002c0.001,0.002 0.001,0.003 0.001,0.003l0.001,0.001c0.019,0.031 0.054,0.054 0.095,0.058c0.068,0.006 0.128,-0.043 0.134,-0.109c0,0 0,-0.001 0,-0.003c0,-0.001 0.001,-0.002 0.001,-0.004c0,-0.002 0,-0.004 0,-0.006c0,-0.008 0.001,-0.02 0.001,-0.037c0,-0.015 0.001,-0.035 0,-0.059c0,-0.023 -0.001,-0.05 -0.003,-0.08c-0.002,-0.031 -0.005,-0.065 -0.009,-0.102c-0.004,-0.037 -0.01,-0.078 -0.018,-0.122c-0.015,-0.087 -0.037,-0.188 -0.074,-0.3c-0.037,-0.112 -0.087,-0.236 -0.164,-0.368c-0.038,-0.065 -0.083,-0.132 -0.138,-0.2c-0.054,-0.067 -0.118,-0.135 -0.194,-0.2c-0.038,-0.032 -0.08,-0.063 -0.124,-0.093c-0.022,-0.014 -0.045,-0.029 -0.069,-0.043c-0.024,-0.013 -0.049,-0.027 -0.074,-0.039c-0.025,-0.013 -0.052,-0.025 -0.079,-0.036c-0.027,-0.011 -0.054,-0.022 -0.082,-0.031c-0.057,-0.019 -0.115,-0.035 -0.176,-0.047c-0.12,-0.023 -0.246,-0.03 -0.37,-0.021c-0.123,0.009 -0.244,0.032 -0.36,0.066c-0.057,0.017 -0.114,0.036 -0.169,0.058l-0.02,0.008l-0.005,0.002c-0.001,0 -0.009,0.004 -0.011,0.005l-0.008,0.003l-0.017,0.007l-0.004,0.002l-0.005,0.002l-0.012,0.006l-0.025,0.011l-0.013,0.006l-0.011,0.006c-0.014,0.007 -0.028,0.014 -0.042,0.021c-0.113,0.059 -0.216,0.127 -0.312,0.201c-0.048,0.036 -0.094,0.074 -0.139,0.113c-0.044,0.039 -0.087,0.079 -0.13,0.12c-0.042,0.041 -0.082,0.084 -0.122,0.126c-0.04,0.043 -0.079,0.087 -0.116,0.132c-0.151,0.178 -0.287,0.368 -0.412,0.567c-0.125,0.2 -0.24,0.408 -0.344,0.624c-0.104,0.216 -0.199,0.439 -0.283,0.669c-0.021,0.057 -0.042,0.115 -0.062,0.173c-0.02,0.058 -0.039,0.117 -0.057,0.176c-0.038,0.117 -0.072,0.236 -0.104,0.357c-0.127,0.48 -0.213,0.981 -0.24,1.491c-0.013,0.255 -0.012,0.512 0.01,0.77c0.011,0.129 0.028,0.258 0.05,0.386c0.022,0.129 0.05,0.257 0.086,0.384c0.036,0.126 0.079,0.252 0.131,0.375c0.025,0.061 0.054,0.122 0.084,0.182c0.008,0.015 0.015,0.03 0.023,0.045l0.026,0.048l0.022,0.038l0.006,0.009l0.007,0.012l0.014,0.023c0.019,0.033 0.038,0.06 0.057,0.09c0.02,0.028 0.04,0.057 0.062,0.085c0.043,0.056 0.089,0.111 0.14,0.164c0.051,0.052 0.107,0.101 0.166,0.147c0.06,0.046 0.124,0.087 0.192,0.123c0.067,0.036 0.138,0.067 0.211,0.091c0.072,0.024 0.146,0.041 0.22,0.053c0.147,0.023 0.291,0.02 0.425,0.004c0.135,-0.017 0.261,-0.048 0.379,-0.087c0.118,-0.039 0.229,-0.085 0.333,-0.135c0.104,-0.05 0.202,-0.104 0.296,-0.16c0.094,-0.057 0.182,-0.115 0.267,-0.175c0.17,-0.119 0.325,-0.242 0.469,-0.364c0.143,-0.122 0.275,-0.243 0.397,-0.361c0.122,-0.117 0.235,-0.231 0.339,-0.34c0.207,-0.217 0.379,-0.414 0.515,-0.579c0.137,-0.165 0.239,-0.299 0.307,-0.391c0.035,-0.046 0.061,-0.082 0.078,-0.106c0.017,-0.025 0.026,-0.038 0.026,-0.038" style="fill:#fff;fill-rule:nonzero;"/></g></svg>
