<svg version="1.1" id="VECTOR" xmlns="http://www.w3.org/2000/svg" xmlns:xlink="http://www.w3.org/1999/xlink" x="0px" y="0px"
	 viewBox="-59 256.5 492.8 280.5" style="enable-background:new -59 256.5 492.8 280.5;" xml:space="preserve">
<style type="text/css">
	.st0{fill:none;}
	.st1{fill:#FFFFFF;}
</style>
<rect x="-98.3" y="215.8" class="st0" width="360" height="436.5"/>
<g>
	<g>
		<g>
			<path class="st1" d="M272,513.8c-2.2,4.3-6.9,11.1-17.4,11.1c-10.9,0-18.8-8.5-18.8-18.3c0-10.1,8.4-18.4,18.8-18.4
				c6.1,0,14,3.1,17.4,11.5h-4.9c-2.8-5.3-7.9-7.4-12.4-7.4c-6.8,0-14.5,5.1-14.5,14.3c0,7.9,6.1,14.4,14.5,14.4
				c7.3,0,10.9-4.4,12.4-7.1h4.9V513.8z"/>
			<path class="st1" d="M276,476.8h4.5v16.8h0.1c1.4-2.1,4.8-5.4,10.8-5.4c4.3,0,7.9,1.1,11.1,4.3c2.6,2.6,4.3,6.6,4.3,12.3v19.3
				h-4.5v-19.3c0-4.5-1.4-7.7-3.3-9.6c-2.4-2.4-5.6-3-7.6-3s-5.2,0.6-7.6,3c-1.9,1.9-3.3,5.1-3.3,9.6v19.3H276V476.8z"/>
			<path class="st1" d="M341.8,524.1h-4.2v-5.4h-0.1c-1.3,2.6-4.7,6.3-11.2,6.3c-6.9,0-10.5-3.3-12-5.3c-2.5-3.1-3.1-7.6-3.1-11.3
				v-19.3h4.5v19.3c0,4.4,1,7.3,2.5,9.2c2.4,2.8,5.7,3.3,8.1,3.3c2.5,0,5.2-0.6,7.4-2.8c2-2.1,3.6-4.4,3.6-10.5v-18.5h4.5
				L341.8,524.1L341.8,524.1z"/>
			<path class="st1" d="M347.7,489.1h4.5v5.1h0.1c2.1-4.9,6.1-5.7,9.9-6v4.7c-3.1,0.3-5.8,1.4-7.5,3.5c-1.5,1.9-2.4,4.4-2.4,7.2
				v20.5h-4.5v-35H347.7z"/>
			<path class="st1" d="M399.1,513.8c-2.2,4.3-6.9,11.1-17.4,11.1c-10.9,0-18.8-8.5-18.8-18.3c0-10.1,8.4-18.4,18.8-18.4
				c6.1,0,14,3.1,17.4,11.5h-4.9c-2.8-5.3-7.9-7.4-12.4-7.4c-6.8,0-14.5,5.1-14.5,14.3c0,7.9,6.1,14.4,14.5,14.4
				c7.3,0,10.9-4.4,12.4-7.1h4.9V513.8z"/>
			<path class="st1" d="M403,476.8h4.5v16.8h0.1c1.3-2.1,4.8-5.4,10.7-5.4c4.3,0,7.9,1.1,11.1,4.3c2.6,2.6,4.4,6.6,4.4,12.3v19.3
				h-4.5v-19.3c0-4.5-1.4-7.7-3.3-9.6c-2.4-2.4-5.6-3-7.6-3s-5.2,0.6-7.6,3c-1.9,1.9-3.3,5.1-3.3,9.6v19.3H403V476.8z"/>
		</g>
		<g>
			<path class="st1" d="M271.7,438c-2.2,4.4-6.9,11.1-17.4,11.1c-10.9,0-18.8-8.5-18.8-18.3c0-10.1,8.4-18.4,18.8-18.4
				c6.1,0,14,3.1,17.4,11.5h-4.9c-2.8-5.3-7.9-7.4-12.3-7.4c-6.9,0-14.5,5.1-14.5,14.3c0,7.9,6.1,14.4,14.5,14.4
				c7.3,0,10.9-4.4,12.3-7.1h4.9V438z"/>
			<path class="st1" d="M299.1,441.2c0,0-0.5-0.3-1.3-0.6c7.3-4,7.9-10.7,7.9-12.7c0-10.3-7.9-15.8-15.3-15.8
				c-5.4,0-14.9,3.3-15.6,15.6v0.3h4.4v-0.2c0.2-1.9,0.3-4.1,1.7-6.3c2.1-3.4,5.5-5.4,9.5-5.4c6.4,0,10.9,4.8,10.9,11.6
				c0,5.1-3.6,9.6-8.6,10.8c-0.5,0.1-3,0.7-5.2,0.6h-0.3v3.8c3.1,0,6.3,0.6,6.3,0.6c6.1,1.5,10.6,7.1,10.6,13.3
				c0,8.4-5.5,14.3-13.4,14.3c-4.9,0-9.2-2.4-11.7-6.6c-1.6-2.6-1.9-5.1-2.1-7.7h-4.7c0.9,14.5,12,18.5,18.5,18.5
				c8.8,0,18.1-6.6,18.1-18.8C308.8,454.1,308.1,446,299.1,441.2"/>
		</g>
	</g>
	<path class="st1" d="M189.8,308c-49-60-137.4-68.8-197.3-19.7c-60,48.9-68.8,137.3-19.8,197.2s137.4,68.8,197.3,19.7
		C230,456.2,238.8,367.9,189.8,308 M160.8,484.5C110.4,525.7,36.2,518.3-5,467.9c-41.3-50.4-33.8-124.6,16.5-165.8
		c50.4-41.2,124.6-33.8,165.8,16.6C218.6,369.1,211.2,443.3,160.8,484.5"/>
</g>
<path class="st1" d="M164.1,328.2c-37.3-45.7-104.6-52.4-150.3-15.1c-45.7,37.4-52.4,104.7-15,150.3c37.4,45.7,104.6,52.4,150.3,15
	C194.7,441.1,201.5,373.8,164.1,328.2 M141,460.8c-38.1,31.3-94.2,25.6-125.3-12.6C-15.5,410-9.9,353.6,28.2,322.4
	c38.1-31.3,94.2-25.6,125.3,12.6C184.7,373.2,179.1,429.5,141,460.8"/>
<path class="st1" d="M139.6,351.3c-26.2-32-73.3-36.7-105.3-10.5C2.3,367-2.4,414.1,23.8,446.1s73.3,36.7,105.3,10.5
	C161.1,430.5,165.8,383.3,139.6,351.3 M121.9,444c-25.6,21.3-63.3,17.5-84.3-8.6c-20.9-26-17.2-64.4,8.4-85.7
	c25.6-21.3,63.3-17.5,84.3,8.6C151.3,384.3,147.5,422.7,121.9,444"/>
</svg>
