<svg id="Black_Logos" data-name="Black Logos" xmlns="http://www.w3.org/2000/svg" viewBox="0 0 453.54 566.93"><defs><style>.cls-1{fill:#fff;}.cls-2{fill:none;}</style></defs><title>White Kelowna</title><path class="cls-1" d="M234.52,340.73a2.63,2.63,0,0,0-4.09-3.28l0,0-.7.74-2.09,2.2c-1.84,1.93-4.55,4.74-8.07,8.25l-2.79,2.76-3.08,3c-2.16,2.07-4.51,4.28-7.06,6.59s-5.31,4.71-8.27,7.16-6.13,4.92-9.51,7.37-7,4.85-10.76,7.09a85,85,0,0,1-11.92,5.93,40.52,40.52,0,0,1-12.46,3,20.46,20.46,0,0,1-5.7-.46,15.67,15.67,0,0,1-4.89-2.05,19.16,19.16,0,0,1-4.21-3.74,28.08,28.08,0,0,1-1.86-2.5c-.3-.44-.58-.91-.87-1.38s-.57-1-.79-1.41l-.18-.34,0-.08,0-.1-.12-.23-.47-.93c-.07-.14,0,.05,0,0l0-.1-.09-.2-.18-.4c-.13-.26-.24-.54-.36-.81q-.7-1.63-1.3-3.34c-.4-1.14-.75-2.3-1.09-3.48s-.62-2.39-.88-3.61a80.85,80.85,0,0,1-1.67-15.25,119.19,119.19,0,0,1,.79-15.87,153.72,153.72,0,0,1,2.7-15.89q.87-3.94,1.91-7.84t2.23-7.72c.8-2.55,1.63-5.08,2.52-7.57s1.81-5,2.77-7.38c1.93-4.85,4-9.57,6.21-14.09s4.54-8.86,7-12.93a112.64,112.64,0,0,1,7.7-11.28,61.09,61.09,0,0,1,8.17-8.76,31,31,0,0,1,4-2.93l.47-.28.12-.07.08,0,.16-.09.08,0,.07,0,.09,0,.37-.18.19-.09-.07,0,.07,0,.28-.13c.73-.34,1.45-.66,2.15-.93a23.86,23.86,0,0,1,3.91-1.18,15.82,15.82,0,0,1,3.4-.34,14.31,14.31,0,0,1,1.58.11,14.54,14.54,0,0,1,1.56.3A15.28,15.28,0,0,1,192.5,237a26.17,26.17,0,0,1,5.93,4.31,52.32,52.32,0,0,1,4.89,5.34c1.43,1.78,2.67,3.49,3.73,5,.53.76,1,1.49,1.46,2.15s.84,1.28,1.19,1.83.67,1,.93,1.47l.67,1.08.41.65.06.09,0,.05,0,.06v0a2.88,2.88,0,0,0,5.35-1.21v-.07s0-.07,0-.11,0-.08,0-.14l0-.88c0-.38,0-.85,0-1.42s0-1.2-.08-1.93-.11-1.54-.21-2.44-.23-1.87-.41-2.92a52.39,52.39,0,0,0-1.74-7.21A46.15,46.15,0,0,0,211,232a39.34,39.34,0,0,0-3.21-4.81,34.67,34.67,0,0,0-4.54-4.79,30.5,30.5,0,0,0-2.89-2.23c-.52-.35-1.06-.7-1.61-1s-1.13-.65-1.73-.95-1.2-.59-1.82-.86-1.27-.52-1.93-.74a29.3,29.3,0,0,0-4.09-1.11,32.45,32.45,0,0,0-8.63-.51,38.28,38.28,0,0,0-8.39,1.58c-1.34.41-2.66.87-3.94,1.39l-.48.2-.12,0-.25.11-.19.08-.38.16-.09,0-.12.05-.29.14-.59.28-.29.14-.25.13-1,.52a50.12,50.12,0,0,0-7.26,4.8q-1.67,1.32-3.24,2.72t-3,2.89c-1,1-1.93,2-2.86,3s-1.83,2.08-2.71,3.15a119.54,119.54,0,0,0-9.6,13.61,155.93,155.93,0,0,0-8,15q-3.65,7.77-6.6,16-.74,2.07-1.44,4.15t-1.34,4.21c-.87,2.82-1.68,5.68-2.42,8.56a181.24,181.24,0,0,0-5.59,35.77,137.82,137.82,0,0,0,.24,18.47q.38,4.63,1.15,9.26a92.45,92.45,0,0,0,2,9.19,79.24,79.24,0,0,0,3,9q.91,2.21,2,4.37c.18.36.35.72.54,1.07l.61,1.16.51.91.13.23.16.27.33.57c.45.78.89,1.44,1.34,2.14s.93,1.38,1.44,2a41.56,41.56,0,0,0,3.27,3.92,36.7,36.7,0,0,0,3.87,3.54,32.82,32.82,0,0,0,4.46,3,30.7,30.7,0,0,0,4.92,2.17,31.21,31.21,0,0,0,5.13,1.26,35,35,0,0,0,9.92.1,46.47,46.47,0,0,0,8.83-2.08A63.28,63.28,0,0,0,171.7,401c2.44-1.19,4.72-2.5,6.91-3.85s4.25-2.76,6.24-4.18c4-2.86,7.57-5.81,10.91-8.73s6.42-5.83,9.27-8.65,5.48-5.56,7.9-8.16c4.84-5.21,8.83-9.92,12-13.88s5.57-7.17,7.16-9.38c.8-1.11,1.4-2,1.8-2.55l.61-.9M343.64,141.18a31,31,0,0,0-1.58-8.6,28.06,28.06,0,0,0-4.28-8,29.37,29.37,0,0,0-3-3.31c-.52-.51-1.06-1-1.6-1.43l-.46-.38-.24-.19-.18-.14-.28-.22-.26-.2-.18-.13a52.64,52.64,0,0,0-6-3.82,50.67,50.67,0,0,0-19.59-6,60.76,60.76,0,0,0-12.62.13A75.8,75.8,0,0,0,282,111a96.76,96.76,0,0,0-10.21,3.4q-4.83,1.9-9.14,4.06c-2.87,1.44-5.57,3-8.12,4.52a119.64,119.64,0,0,0-13.46,9.64,126.08,126.08,0,0,0-10.21,9.41,112.45,112.45,0,0,0-12.33,15c-1.26,1.87-2.17,3.34-2.76,4.36-.3.51-.51.9-.66,1.17l-.17.31-.05.1a2.92,2.92,0,0,0,4,3.87h0l.1-.05.28-.15,1.12-.62c1-.54,2.43-1.38,4.3-2.46s4.14-2.44,6.79-4l9-5.43c3.36-2,7-4.22,11-6.55s8.31-4.78,12.92-7.22c2.31-1.22,4.69-2.44,7.14-3.62s5-2.33,7.61-3.36a66.13,66.13,0,0,1,16.46-4.31,35.54,35.54,0,0,1,16.45,1.7,31,31,0,0,1,3.81,1.73,33,33,0,0,1,3.64,2.31l.11.08h0l0,0,.29.22.1.08,0,0,.09.07c.19.17.39.33.56.49a9.64,9.64,0,0,1,.92,1,7.82,7.82,0,0,1,1.23,2.26,11.09,11.09,0,0,1,.56,3.07,19.88,19.88,0,0,1-.22,4,43.4,43.4,0,0,1-2.74,9.53,90.82,90.82,0,0,1-4.9,10.18c-1.89,3.42-4,6.86-6.23,10.29s-4.64,6.85-7.13,10.26q-1.87,2.56-3.82,5.11t-3.95,5.11c-5.35,6.81-11,13.57-16.84,20.34s-11.82,13.54-17.9,20.34l-9.14,10.28c-3.06,3.45-6.11,6.93-9.15,10.51-1.52,1.79-3,3.62-4.53,5.51s-3,3.83-4.49,6c-.38.55-.75,1.12-1.13,1.72s-.76,1.24-1.14,2c-.19.36-.39.74-.59,1.16s-.4.87-.6,1.4a14.92,14.92,0,0,0-.58,1.92c0,.19-.09.4-.13.62a8.12,8.12,0,0,0,.07,3.46,8.64,8.64,0,0,0,1.79,3.61,9.09,9.09,0,0,0,1.58,1.49,9.46,9.46,0,0,0,1.09.69c.29.16.55.28.77.39a11.83,11.83,0,0,0,1.11.43c.62.21,1.08.33,1.52.43.86.2,1.55.33,2.22.44,1.33.22,2.53.37,3.71.52,2.35.29,4.6.53,6.83.8s4.43.53,6.61.84c4.36.6,8.65,1.32,12.86,2.21a121.57,121.57,0,0,1,12.27,3.23,80.66,80.66,0,0,1,11.36,4.59,54.35,54.35,0,0,1,9.84,6.25,38.54,38.54,0,0,1,7.55,8.06,34.62,34.62,0,0,1,4.64,9.7,42.23,42.23,0,0,1,1.7,10.78,60.28,60.28,0,0,1-.73,11.13c-.14.92-.3,1.85-.48,2.77l-.28,1.42-.3,1.4q-.61,2.81-1.33,5.54A122.56,122.56,0,0,1,295,397.14,131.66,131.66,0,0,1,283.05,412a152.89,152.89,0,0,1-12.5,12c-4.14,3.56-8.2,6.69-12.05,9.47s-7.5,5.23-10.83,7.41L242.9,444c-1.51,1-2.93,1.93-4.27,2.89-.67.48-1.32,1-2,1.47a16.64,16.64,0,0,0-1.92,1.77,7.86,7.86,0,0,0-1,1.39,5.3,5.3,0,0,0-.48,1.15l0,.18c0,.1,0,.05-.06.27l0,.11,0,.17,0,.26a6.66,6.66,0,0,0,.46,3.08,7.32,7.32,0,0,0,1.25,2,8.39,8.39,0,0,0,1.33,1.24,9.52,9.52,0,0,0,2.24,1.25,8.85,8.85,0,0,0,1.45.43l.55.1a1.73,1.73,0,1,0,1.55-3.09,14.53,14.53,0,0,0-.87-1.23c-.28-.39-.62-.88-.93-1.4a5.87,5.87,0,0,1-.38-.78,2.18,2.18,0,0,1-.15-.58l.08-.08a11.19,11.19,0,0,1,1.17-1c.5-.37,1.07-.77,1.68-1.17,1.23-.81,2.63-1.68,4.14-2.6l4.87-3a227.49,227.49,0,0,0,24.26-16.66,160.26,160.26,0,0,0,13.63-12.18,144.34,144.34,0,0,0,13.34-15.41,132.89,132.89,0,0,0,20.78-41q.9-2.95,1.68-6l.39-1.52.36-1.52q.37-1.56.68-3.17A72,72,0,0,0,328,336.19a54.5,54.5,0,0,0-1.66-14,47.47,47.47,0,0,0-5.83-13.53,52,52,0,0,0-9.71-11.27A67.49,67.49,0,0,0,298.74,289a95.34,95.34,0,0,0-13.16-5.93,134.54,134.54,0,0,0-13.65-4.15c-4.6-1.15-9.22-2.09-13.84-2.9q-3.46-.61-6.9-1.13l-1.52-.23.34-.4c1.41-1.65,2.88-3.31,4.38-5,3-3.33,6.1-6.65,9.21-10l9.41-10c6.27-6.66,12.53-13.36,18.66-20.13s12.09-13.64,17.83-20.64q2.16-2.63,4.26-5.28t4.13-5.35c2.72-3.59,5.36-7.24,7.88-11s4.95-7.53,7.19-11.47a110.23,110.23,0,0,0,6.11-12.35,71.21,71.21,0,0,0,2.42-6.72,54.54,54.54,0,0,0,1.69-7.28,40.15,40.15,0,0,0,.48-8m-104,313.26,0,.07,0,.14a.46.46,0,0,1,.06-.23.18.18,0,0,1,0,0s0,0,0,0v-.06l0-.11,0,.15M240.1,273l.16.06h0c-.12,0-.21-.07-.13,0"/><path class="cls-1" d="M127.47,525.64l-1.84,2.08v6.15h-2.28v-18.3h2.28V525l8.09-9.47h2.85l-7.63,8.7,8.29,9.6h-2.83Z"/><path class="cls-1" d="M153.56,515.57h12v2h-9.71v5.9h9.52v2h-9.52v6.31h9.71v2h-12Z"/><path class="cls-1" d="M182.9,515.57h2.28v16.27h8.5v2H182.9Z"/><path class="cls-1" d="M219,515.27c5.4,0,9.08,4.06,9.08,9.47s-3.68,9.46-9.08,9.46-9.08-4.06-9.08-9.46S213.52,515.27,219,515.27Zm0,2c-4.12,0-6.72,3.16-6.72,7.44s2.61,7.43,6.72,7.43,6.72-3.18,6.72-7.43S223,517.3,219,517.3Z"/><path class="cls-1" d="M255.28,519.11l-4,14.76h-2.47l-5.21-18.3h2.52l4.06,15.25,4.2-15.25h1.89l4.2,15.25,4-15.25H267l-5.21,18.3h-2.47Z"/><path class="cls-1" d="M285.55,519.28v14.6h-2.28v-18.3h2.33l10.54,14.29V515.57h2.28v18.3h-2.19Z"/><path class="cls-1" d="M327.86,529.81h-9.11l-1.62,4.06h-2.61l7.35-18.3h2.83l7.38,18.3h-2.61Zm-8.45-2h7.76l-3.87-9.85Z"/><rect class="cls-2" width="453.54" height="566.93"/></svg>